# xmcd
#
# Track frame offsets: 
#        150
#        4613
#        18934
#        35149
#        50188
#        72546
#        95167
#        113255
#        139089
#        156560
#        175108
#        193113
#        207806
#        222442
#        239013
#        253631
#        276577
#        299258
#        318844
#
# Disc length: 4592 seconds
#
# Revision: 1
# Processed by: cddbd v1.5.2PL0 Copyright (c) Steve Scherf et al.
# Submitted via: ExactAudioCopyFreeDBPlugin 1.0
#
DISCID=2911ee13
DTITLE=Nico - The Marble Index  [2007 expanded remaster]
DYEAR=1968
DGENRE=Avantgarde
TTITLE0=Prelude
TTITLE1=Lawns of Dawns
TTITLE2=No One is There
TTITLE3=Ari's Song
TTITLE4=Facing the Wind
TTITLE5=Julius Caesar (Memento Hodie)
TTITLE6=Frozen Warnings
TTITLE7=Evening of Light
TTITLE8=Sagen Die Gelehrten  [outtake]
TTITLE9=Rêve Réveiller  [outtake]
TTITLE10=Roses in the Snow  [alt.]
TTITLE11=Nibelungen  [complete version]
TTITLE12=Lawns of Dawns  [alt.]
TTITLE13=No One is There  [alt.]
TTITLE14=Ari's Song  [alt.]
TTITLE15=Facing the Wind  [alt.]
TTITLE16=Julius Caesar  [alt.]
TTITLE17=Frozen Warnings  [alt.]
TTITLE18=Evening of Light  [alt.]
EXTD=YEAR: 1968
EXTT0=
EXTT1=
EXTT2=
EXTT3=
EXTT4=
EXTT5=
EXTT6=
EXTT7=
EXTT8=
EXTT9=
EXTT10=
EXTT11=
EXTT12=
EXTT13=
EXTT14=
EXTT15=
EXTT16=
EXTT17=
EXTT18=
PLAYORDER=
